<svg width="253" height="79" viewBox="0 0 253 79" fill="none" xmlns="http://www.w3.org/2000/svg">
<path d="M109.226 61.4363C109.93 56.1053 110.626 50.812 111.338 45.4204H125.177C124.503 50.7136 123.822 56.0295 123.133 61.4363H109.226Z" fill="url(#paint0_linear_174_24)"/>
<path d="M100.679 61.4669H88.4065C90.4203 46.5869 92.419 31.7901 94.4252 16.9707H106.47C105.811 21.9307 105.16 26.7923 104.502 31.7296C104.956 31.775 105.304 31.8356 105.652 31.8356C115.6 31.8356 127.638 31.8962 137.585 31.8129C142.605 31.775 146.382 29.579 148.374 24.7855C149.343 22.4532 149.509 20.0451 148.797 17.6144C147.874 14.4339 145.535 12.7604 142.408 12.5938C138.199 12.3666 133.967 12.5408 129.515 12.5408C128.834 17.8567 128.122 23.3922 127.395 29.0489H113.072C114.283 19.4469 115.487 9.84495 116.713 0.136961C117.039 0.114243 117.432 0.0536626 117.826 0.0536626C125.374 0.0536626 132.922 0.000646596 140.47 0.0687994C144.338 0.106662 148.177 0.470147 151.871 1.78777C158.321 4.08982 161.857 8.68635 162.674 15.4183C163.424 21.5824 162.409 27.4284 158.927 32.6231C155.028 38.4388 149.312 41.6647 142.468 42.1494C135.011 42.6794 127.494 42.475 120.006 42.5659C117.046 42.6037 111.989 42.5204 109.036 42.5961C104.865 42.6946 102.882 44.6786 102.397 48.8283C101.913 53.0084 101.277 57.1808 100.686 61.4593L100.679 61.4669Z" fill="url(#paint1_linear_174_24)"/>
<path d="M195.107 19.6278V16.6669H205.108C203.298 31.6529 201.504 46.5633 199.695 61.5569H188.346C188.498 60.1862 188.657 58.7626 188.831 57.1951C187.779 58.0432 186.825 58.9065 185.78 59.641C179.549 64.0482 170.396 63.8968 164.665 59.2624C160.956 56.2637 159.502 52.0988 159.366 47.5325C159.101 38.6651 161.433 30.4716 166.884 23.414C171.767 17.091 178.505 15.0388 186.264 15.8188C189.482 16.1368 192.374 17.2197 195.099 19.6353L195.107 19.6278ZM192.662 35.6285C192.662 35.0682 192.684 34.5078 192.662 33.9474C192.442 29.8734 190.254 27.0337 186.59 26.4128C182.835 25.7767 179.368 26.5793 176.612 29.366C172.622 33.3946 171.244 38.4531 171.653 43.9129C172.017 48.7972 174.757 51.387 179.148 51.5763C181.934 51.6974 184.447 50.7963 186.643 49.0546C190.973 45.6243 192.495 40.9293 192.669 35.6361L192.662 35.6285Z" fill="url(#paint2_linear_174_24)"/>
<path d="M202.882 78.9822C203.291 75.3474 205.774 71.8792 206.175 68.2898C208.303 68.2898 210.384 68.4867 212.421 68.2444C216.396 67.7749 218.106 65.0639 218.894 61.6941C219.015 61.1641 218.727 60.5128 218.568 59.9297C214.669 45.6555 210.763 31.3813 206.864 17.0995C206.841 17.0086 206.849 16.9026 206.841 16.6906H219.772C222.058 26.7242 224.337 36.7351 226.707 47.1473C229.652 40.1048 232.43 33.4637 235.209 26.8302C236.48 23.786 237.767 20.757 239.009 17.6977C239.304 16.9632 239.637 16.5694 240.538 16.5846C244.361 16.6451 248.185 16.6073 252.182 16.6073C252.038 17.0465 251.955 17.41 251.803 17.7507C244.755 33.2744 237.714 48.8057 230.643 64.3218C228.743 68.4867 226.366 72.2957 222.566 75.0521C218.788 77.7858 214.465 78.6869 209.945 78.9519C208.333 79.0504 204.608 78.9671 202.889 78.9671L202.882 78.9822Z" fill="url(#paint3_linear_174_24)"/>
<path d="M72.262 61.6248C72.4892 59.5651 72.7239 57.4751 72.9964 55.0367C70.2407 58.7548 67.0232 61.337 62.7988 62.2533C57.9914 63.2908 53.2674 63.2529 49.2398 59.7847C46.8096 57.6947 45.6816 54.8777 45.6892 51.8032C45.6968 48.0472 46.0147 44.2837 46.4462 40.5504C47.1957 34.0911 48.1421 27.6544 49.0127 21.2102C49.2095 19.7487 49.4366 18.2948 49.6713 16.7424H62.5035C62.1326 19.567 61.7692 22.3309 61.4058 25.0873C60.5579 31.4861 59.5737 37.8698 58.8923 44.2913C58.2791 50.0691 62.3597 53.0905 67.8332 51.1217C71.293 49.8798 73.3522 47.3127 74.0714 43.8142C74.9193 39.6872 75.5326 35.5147 76.1533 31.3498C76.865 26.5791 77.4782 21.7857 78.1596 16.8787H90.6284C88.5692 31.7512 86.5175 46.616 84.4356 61.6248H72.262Z" fill="url(#paint4_linear_174_24)"/>
<path d="M108.696 6.9214C108.665 11.0711 105.365 14.3576 101.208 14.3652C97.09 14.3728 94.0466 11.5937 94.0542 7.82253C94.0618 3.63492 97.7865 -0.0226123 102.026 0.000105267C106.008 0.0228229 108.726 2.83981 108.703 6.92898L108.696 6.9214Z" fill="url(#paint5_linear_174_24)"/>
<path d="M2.13057 45.2917C2.91352 45.6225 3.3745 45.7695 3.79159 45.9974C9.57952 49.1146 15.7992 50.4158 22.3115 50.1659C24.2286 50.0924 26.2263 49.6733 27.997 48.9455C32.2118 47.2252 32.7532 42.2848 28.9044 39.8881C26.4897 38.3884 23.6506 37.5723 20.9725 36.5137C18.4114 35.5065 15.7114 34.8007 13.2601 33.5803C5.82578 29.8898 3.30133 24.0966 5.48187 16.0538C7.69167 7.89332 13.4943 3.60725 21.3457 1.9237C29.1385 0.247497 36.646 1.56346 43.8242 4.90116C44.2559 5.09965 44.7755 5.83483 44.7242 6.26123C44.3291 9.6651 43.8023 13.0542 43.2828 16.6713C42.6901 16.414 42.1339 16.2155 41.6144 15.9508C35.9143 12.9954 29.9215 11.6721 23.5481 12.8705C22.1579 13.1351 20.731 13.7821 19.5749 14.6055C17.2553 16.2523 16.9407 19.4797 19.0554 21.3764C20.6066 22.7659 22.5384 23.854 24.4628 24.6774C27.8873 26.1477 31.5093 27.1549 34.9265 28.6547C44.695 32.9554 46.0779 42.2113 41.7534 50.2026C38.3363 56.5251 32.7167 59.8481 25.9043 61.12C17.4602 62.7006 9.34537 61.4141 1.70617 57.4147C1.2964 57.2015 0.77688 56.5693 0.820783 56.1796C1.17933 52.6434 1.65495 49.1146 2.13057 45.2917Z" fill="url(#paint6_linear_174_24)"/>
<defs>
<linearGradient id="paint0_linear_174_24" x1="11.5126" y1="4.8844" x2="229.473" y2="157.123" gradientUnits="userSpaceOnUse">
<stop stop-color="white"/>
<stop offset="1" stop-color="#968DB9"/>
</linearGradient>
<linearGradient id="paint1_linear_174_24" x1="11.5126" y1="4.8844" x2="229.473" y2="157.123" gradientUnits="userSpaceOnUse">
<stop stop-color="white"/>
<stop offset="1" stop-color="#968DB9"/>
</linearGradient>
<linearGradient id="paint2_linear_174_24" x1="11.5126" y1="4.8844" x2="229.473" y2="157.123" gradientUnits="userSpaceOnUse">
<stop stop-color="white"/>
<stop offset="1" stop-color="#968DB9"/>
</linearGradient>
<linearGradient id="paint3_linear_174_24" x1="11.5126" y1="4.8844" x2="229.473" y2="157.123" gradientUnits="userSpaceOnUse">
<stop stop-color="white"/>
<stop offset="1" stop-color="#968DB9"/>
</linearGradient>
<linearGradient id="paint4_linear_174_24" x1="11.5126" y1="4.8844" x2="229.473" y2="157.123" gradientUnits="userSpaceOnUse">
<stop stop-color="white"/>
<stop offset="1" stop-color="#968DB9"/>
</linearGradient>
<linearGradient id="paint5_linear_174_24" x1="11.5126" y1="4.8844" x2="229.473" y2="157.123" gradientUnits="userSpaceOnUse">
<stop stop-color="white"/>
<stop offset="1" stop-color="#968DB9"/>
</linearGradient>
<linearGradient id="paint6_linear_174_24" x1="11.5126" y1="4.8844" x2="229.473" y2="157.123" gradientUnits="userSpaceOnUse">
<stop stop-color="white"/>
<stop offset="1" stop-color="#968DB9"/>
</linearGradient>
</defs>
</svg>
