<svg width="16" height="18" viewBox="0 0 16 18" fill="none" xmlns="http://www.w3.org/2000/svg">
<g clip-path="url(#clip0_1_523)">
<path fill-rule="evenodd" clip-rule="evenodd" d="M12.229 7.50664C12.9612 8.42659 13.4024 9.5953 13.4024 10.8626C13.4024 12.1299 12.9518 13.3314 12.1961 14.2608L12.1304 14.3405L12.1116 14.2373C12.0975 14.1528 12.0788 14.0636 12.06 13.9744C11.6845 12.3176 10.4548 10.8954 8.42713 9.7408C7.06129 8.96636 6.27746 8.03233 6.07094 6.97157C5.93952 6.2863 6.03808 5.59634 6.22583 5.00495C6.41826 4.41355 6.69988 3.92072 6.93926 3.62503L7.72778 2.66284C7.8639 2.49387 8.12674 2.49387 8.26285 2.66284L12.229 7.50664ZM13.4728 6.54445L8.19714 0.0954317C8.09858 -0.0266022 7.90614 -0.0266022 7.80757 0.0954317L2.52726 6.54445L2.50849 6.56792C1.5416 7.77418 0.959595 9.3043 0.959595 10.9705C0.959595 14.8521 4.1137 18.0016 8.00001 18.0016C11.8863 18.0016 15.0404 14.8521 15.0404 10.9705C15.0404 9.3043 14.4584 7.77418 13.4868 6.56792L13.4728 6.54445ZM3.78984 7.48787L4.2592 6.91055L4.27328 7.01851C4.28267 7.10299 4.29675 7.18748 4.31553 7.27196C4.62061 8.87248 5.71422 10.2102 7.53534 11.2428C9.12179 12.1439 10.0417 13.1812 10.3093 14.3218C10.4219 14.7958 10.4407 15.2652 10.3938 15.6735L10.3891 15.697L10.3656 15.7064C9.65216 16.0537 8.84486 16.2508 7.99532 16.2508C5.01487 16.2508 2.59767 13.8383 2.59767 10.8626C2.59767 9.58591 3.04356 8.40782 3.78984 7.48787Z" fill="#4DA2FF"/>
</g>
<defs>
<clipPath id="clip0_1_523">
<rect width="14.0808" height="18" fill="white" transform="translate(0.959595)"/>
</clipPath>
</defs>
</svg>
